<svg xmlns="http://www.w3.org/2000/svg" width="1200" height="630" viewBox="0 0 1200 630">
<defs><linearGradient id="bg" x2="1" y2="1"><stop stop-color="#0c2430"/><stop offset="1" stop-color="#061018"/></linearGradient><linearGradient id="jet" x2=".8" y2="1"><stop stop-color="#b9d4dd"/><stop offset=".55" stop-color="#577884"/><stop offset="1" stop-color="#203b48"/></linearGradient><pattern id="grid" width="60" height="60" patternUnits="userSpaceOnUse"><path d="M60 0H0V60" fill="none" stroke="#37616d" stroke-opacity=".18"/></pattern></defs>
<rect width="1200" height="630" fill="url(#bg)"/><rect width="1200" height="630" fill="url(#grid)"/>
<g fill="none" stroke="#477b87" stroke-opacity=".18"><ellipse cx="952" cy="340" rx="270" ry="240"/><ellipse cx="952" cy="340" rx="212" ry="185"/><ellipse cx="952" cy="340" rx="150" ry="126"/><path d="M690 130Q600 290 730 474T1170 580M630 90Q520 300 660 510M570 60Q450 290 590 560"/></g>
<path d="M64 71 83 38 102 71 83 62Z" fill="#9de7dc"/><text x="120" y="64" font-family="DejaVu Sans,sans-serif" font-size="18" letter-spacing="5" fill="#9de7dc">BROWSER FLIGHT COMBAT</text>
<text x="62" y="253" font-family="DejaVu Sans,sans-serif" font-size="94" font-weight="bold" letter-spacing="-6" fill="#edf5f4">SKYBREAK</text>
<rect x="66" y="291" width="52" height="4" fill="#dfba78"/>
<text x="66" y="351" font-family="DejaVu Sans,sans-serif" font-size="28" fill="#c4d4dc">Free flight. Your next sortie.</text>
<text x="66" y="421" font-family="DejaVu Sans,sans-serif" font-size="17" letter-spacing="2" fill="#9de7dc">EXPLORE · CUSTOMIZE · FLY</text>
<g transform="translate(936 305) rotate(28)"><path d="M0-215 16-148 23-70 178 94 181 129 35 78 28 155 66 193 65 213 9 197 0 169-9 197-65 213-66 193-28 155-35 78-181 129-178 94-23-70-16-148Z" fill="url(#jet)" stroke="#c0d6de" stroke-width="1.5"/><path d="M0-170 9-101 8-49 0-33-8-49-9-101Z" fill="#081e2a" stroke="#9de7dc" stroke-width="1.2"/><path d="M0-31v196M-22-60-30 67-149 112M22-60 30 67 149 112M-18 85-18 168M18 85v83" fill="none" stroke="#263f4c" stroke-width="2"/><path d="M-12 197-9 233M12 197l-3 36" stroke="#dfba78" stroke-width="4"/></g>
<path d="M64 531H1136" stroke="#294551"/><text x="65" y="569" font-family="DejaVu Sans,sans-serif" font-size="15" fill="#c4d4dc">skybreak-iota.vercel.app</text><text x="1135" y="569" text-anchor="end" font-family="DejaVu Sans,sans-serif" font-size="12" letter-spacing="1" fill="#a7bdc5">ORIGINAL BRAND ARTWORK · NOT GAMEPLAY</text>
</svg>
